<?xml version="1.0" encoding="utf-8"?>
<!-- Generator: Adobe Illustrator 23.0.1, SVG Export Plug-In . SVG Version: 6.00 Build 0)  -->
<svg version="1.1" id="Layer_1" xmlns="http://www.w3.org/2000/svg" xmlns:xlink="http://www.w3.org/1999/xlink" x="0px" y="0px"
	 viewBox="0 0 108.2 144" style="enable-background:new 0 0 108.2 144;" xml:space="preserve">
<style type="text/css">
	.st0{fill:#FFFFFF;}
</style>
<g>
	<path class="st0" d="M41.8,87.5h-0.6v3.2h0.6c0.5,0,1.2-0.1,1.6-0.5c0.3-0.3,0.4-0.7,0.4-1.1c0-0.4-0.2-0.8-0.4-1.1
		C43.1,87.7,42.5,87.5,41.8,87.5z"/>
	<polygon class="st0" points="18,44.3 20.9,44.3 19.4,40.1 	"/>
	<polygon class="st0" points="36.9,77 39.7,77 38.3,72.8 	"/>
	<path class="st0" d="M28.6,87.9c-0.9,0-1.9,0.3-2.6,1c-0.7,0.7-1,1.6-1,2.5c0,1.1,0.5,1.9,1,2.4c0.6,0.6,1.5,1,2.6,1
		c1.1,0,2-0.4,2.6-1c0.6-0.6,1-1.5,1-2.5c0-1-0.4-1.9-1-2.5C30.5,88.2,29.5,87.9,28.6,87.9z"/>
	<path class="st0" d="M32,55.2c-0.9,0-1.9,0.3-2.6,1c-0.7,0.7-1,1.6-1,2.5c0,1.1,0.5,1.9,1,2.4c0.6,0.6,1.5,1,2.6,1
		c1.1,0,2-0.4,2.6-1c0.6-0.6,1-1.5,1-2.5c0-1-0.4-1.9-1-2.5C33.9,55.5,32.9,55.2,32,55.2z"/>
	<path class="st0" d="M33.2,41.4c0.3-0.3,0.4-0.7,0.4-1.1c0-0.4-0.2-0.8-0.4-1.1c-0.3-0.3-0.9-0.5-1.6-0.5h-0.6v3.2h0.6
		C32.1,41.9,32.8,41.7,33.2,41.4z"/>
	<polygon class="st0" points="53.2,24.5 51.8,28.7 54.7,28.7 	"/>
	<path class="st0" d="M2,5.1l8.9,103l29.4,0.6l-11.6,31.6l37.7-30.5h29.4l8.9-94.7L2,5.1z M51.4,20.5h3.6l4.8,12.9h-3.6l-0.8-2.2
		h-4.7L50,33.4h-3.5L51.4,20.5z M46.8,41.1v2.8H43v2.2h4V49h-7.3V36.1H47v2.8h-4v2.1H46.8z M33.5,20.5h3.3v4.8h4.8v-4.8H45v12.9
		h-3.4v-5.2h-4.8v5.2h-3.3V20.5z M36,37.2c0.7,0.8,1.1,1.9,1.1,2.9c0,1.1-0.4,2.1-1,2.7c-0.5,0.5-1.2,0.8-1.8,0.9l4,5.3h-4.1
		L30.9,44V49h-3.3V36.1h5.2C33.8,36.1,35,36.3,36,37.2z M39.1,58.6c0,1.7-0.7,3.5-2,4.8c-1.3,1.3-3.2,1.9-5.1,1.9s-3.8-0.7-5.1-1.9
		c-1.4-1.3-2-3.1-2-4.8c0-1.7,0.7-3.5,2-4.8c1.3-1.3,3.2-1.9,5.1-1.9s3.8,0.7,5.1,1.9C38.5,55.1,39.1,56.9,39.1,58.6z M16.1,20.5
		l2.2,8.3l2.7-8.3h2.7l2.5,8.3l2.4-8.3h3.5L28,33.4h-3.4l-2.3-7.4l-2.5,7.4h-3.4l-3.8-12.9H16.1z M26.1,49h-3.6l-0.8-2.2h-4.7
		L16.2,49h-3.5l4.9-12.9h3.6L26.1,49z M16.3,52.2l2.4,3.5l2.3-3.5h4.1l-4.8,6.7v6.2H17v-6.2l-4.6-6.7H16.3z M16.1,68.8l2.2,8.3
		l2.7-8.3h2.7l2.5,8.3l2.4-8.3h3.5L28,81.7h-3.4l-2.3-7.4l-2.5,7.4h-3.4l-3.8-12.9H16.1z M20.1,87.8h-4v2.1h3.7v2.8H16v5.1h-3.3
		V84.9h7.4V87.8z M33.7,96.2c-1.3,1.3-3.2,1.9-5.1,1.9s-3.8-0.7-5.1-1.9c-1.4-1.3-2-3.1-2-4.8c0-1.7,0.7-3.5,2-4.8
		c1.3-1.3,3.2-1.9,5.1-1.9s3.8,0.7,5.1,1.9c1.4,1.3,2,3.1,2,4.8C35.7,93.1,35,94.9,33.7,96.2z M35.1,81.7h-3.5l4.9-12.9h3.6L45,81.7
		h-3.6l-0.8-2.2h-4.7L35.1,81.7z M44.3,97.8l-3.2-4.9v4.9h-3.3V84.9H43c1,0,2.2,0.2,3.1,1.1c0.7,0.8,1.1,1.9,1.1,2.9
		c0,1.1-0.4,2.1-1,2.7c-0.5,0.5-1.2,0.8-1.8,0.9l4,5.3H44.3z M49.8,81.7h-3.3V68.8h3.3V81.7z M46.8,65.4c-2,0-3.5-0.7-4.3-1.5
		c-1.1-1.2-1.3-2.9-1.3-4.2v-7.4h3.3v7.6c0,0.5,0,1.4,0.7,2c0.4,0.4,1,0.6,1.6,0.6c0.6,0,1.2-0.2,1.5-0.6c0.8-0.7,0.8-1.6,0.8-2.3
		v-7.3h3.3v7.4c0,1.4-0.1,2.8-1.4,4.2C49.9,64.9,48.6,65.4,46.8,65.4z M60.1,71.7h-2.7v10H54v-10h-2.7v-2.8h8.8V71.7z M64.9,81.7
		h-3.3V68.8h3.3V81.7z M65.7,23.4v10h-3.3v-10h-2.7v-2.8h8.8v2.8H65.7z M80.4,81.7h-3.3l-6.2-7.9v7.9h-3.3V68.8h3.3l6.2,7.9v-7.9
		h3.3V81.7z M93.9,80.2c-1.4,1.3-2.9,1.6-4.5,1.6c-2.3,0-3.9-0.8-4.9-1.9c-1-1-1.9-2.5-1.9-4.6c0-2,0.8-3.7,1.9-4.8
		c1.1-1.1,2.7-1.9,5-1.9c1.2,0,2.5,0.3,3.5,0.9c1,0.6,1.8,1.6,2.3,2.6l-3.2,1.3c-0.2-0.6-0.6-1-0.9-1.3c-0.6-0.5-1.2-0.6-1.8-0.6
		c-0.8,0-1.6,0.3-2.2,0.9c-0.8,0.8-1.1,1.9-1.1,3c0,1.2,0.4,2.1,1,2.8c0.6,0.7,1.4,1,2.4,1c0.6,0,1.3-0.1,1.9-0.6
		c0.3-0.3,0.7-0.7,0.8-1.4h-2.7v-2.6h6.6C95.9,76.9,95.4,78.8,93.9,80.2z"/>
</g>
</svg>
