<?xml version="1.0" encoding="utf-8"?>
<!-- Generator: Adobe Illustrator 23.0.1, SVG Export Plug-In . SVG Version: 6.00 Build 0)  -->
<svg version="1.1" id="Layer_1" xmlns="http://www.w3.org/2000/svg" xmlns:xlink="http://www.w3.org/1999/xlink" x="0px" y="0px"
	 viewBox="0 0 521.1 521.1" style="enable-background:new 0 0 521.1 521.1;" xml:space="preserve">
<style type="text/css">
	.st0{fill:#EAEAEA;}
	.st1{fill:#F2EBE7;}
	.st2{fill:#ED5145;}
	.st3{fill:#DD423A;}
	.st4{opacity:0.2;fill:#FFFFFF;enable-background:new    ;}
</style>
<g>
	<g>
		<g>
			<circle class="st0" cx="260.6" cy="260.6" r="260.6"/>
			<path class="st1" d="M0,260.6c0,143.9,116.7,260.6,260.6,260.6V0C116.7,0,0,116.7,0,260.6z"/>
		</g>
		<g>
			<path class="st2" d="M382.8,258.4c-29-26.1-97.5-68.5-55-81.1c42.5-12.5,48.6-20,39.6-29.9c-12.9-14.1-68.5-7.7-75.7-15.4
				c-7.2-7.7,16.8-56,16.8-56l-28-4.8c0,0-2.9,54.1-14.5,54.1s-6.8-54.1-6.8-54.1c-8.7,6.8-28,0-28,0s20.3,57.9,6.8,57.9
				c-13.5,0-26.1-48.3-26.1-48.3c-5.8,9.7-18.4,10.6-18.4,10.6c11.5,17.4,6.8,49.4,6.8,49.4c-17.4,18.5-13.2,52-13.2,52l0.1,0
				c-1.7,17.9,8.2,55.3,0.6,71.7c-10.6,22.9-34.7,62.4-5.8,109.7s97.1,115.2,200.8,46.3C440.7,382.1,411.8,284.5,382.8,258.4z"/>
			<path class="st2" d="M184.4,155.9c0,0,11.8-21.7-16.2-22.7c-28-1-20.1,47.2-25.8,68.5c-5.8,21.2-48.3,55-42.5,101.3
				c5.8,46.3,63.7,55,63.7,55s-15.9-40.5,2.4-73.3c18.3-32.8,21.7-31.9,15-57C174.3,202.6,184.4,155.9,184.4,155.9z"/>
			<path class="st2" d="M349.6,177.5c9.6-0.1,18,19.3,38.6,15.4c20.6-3.9,26.8-10.3,26.8-10.3s2.2,16.1,6.7,18.7
				c0,0-34.8,6.4-30.9,13.5c3.9,7.1,24.2,15.4,24.2,15.4s-14.5,17.5-12,24.5c0,0-63.7-36.1-72.1-49
				C322.6,192.9,326.5,177.8,349.6,177.5z"/>
			<path class="st3" d="M333.6,415.6c12.3,18.5-33.6-39.2-41.9-57.7c-8.3-18.5-24.7,23-24.7,34.5c0,0-4.8-18.3,8.7-48.3
				c0,0-5.8-43.4-16.4-61.8c-10.6-18.3-36.7,37.6-36.7,56.9c0,0,2.9-58.9,26.1-75.3c0,0-16.4-60.8-8.7-80.1
				c7.7-19.3,19.3-31.9,19.3-31.9s-13.5,25.1-10.6,49.2c2.9,24.1,7.7,44.4,7.7,44.4s43.4-0.9,57.9,15.5c0,0-43.4-9.8-52.1-6.4
				c0,0,6.8,21.8,15.9,47.9c9.2,26.1,34.3,34.7,55.5,38.6c0,0-32.7,0-41.9-8.7C291.6,332.5,325.8,404,333.6,415.6z"/>
		</g>
		<path class="st4" d="M0,260.6c0,143.9,116.7,260.6,260.6,260.6V0C116.7,0,0,116.7,0,260.6z"/>
	</g>
</g>
</svg>
