<?xml version="1.0" encoding="utf-8"?>
<!-- Generator: Adobe Illustrator 23.0.1, SVG Export Plug-In . SVG Version: 6.00 Build 0)  -->
<svg version="1.1" id="Layer_1" xmlns="http://www.w3.org/2000/svg" xmlns:xlink="http://www.w3.org/1999/xlink" x="0px" y="0px"
	 viewBox="0 0 521.7 521.7" style="enable-background:new 0 0 521.7 521.7;" xml:space="preserve">
<style type="text/css">
	.st0{fill:#FFFFFF;}
</style>
<g>
	<g>
		<g>
			<path d="M221.1,430.8c0,0-8.1-11.7-16.7-5.1c-8.6,6.6-41.1,27.4-43.7-20.3c0,0-28.4,12.2-28.9-14.7c0,0-28.4,3.5-23.3-27.4
				c0,0-26.9-13.7-12.2-33c0,0-27.9-15.7-11.2-37.1c0,0-25.4-22.3-5.4-43.7c0,0-20-31,3.3-47.2c0,0-30.4-33-1.5-52.3
				c0,0,3-49.8,40.6-39.6c0,0,23.4-27.9,53.3,2c0,0,36.5-16.8,48.7,22.3c0,0,25.9-22.8,47.7,2.5c0,0,13.7-21.3,35-13.2
				c0,0,12.2-33.2,41.1-20.9c0,0,32.5-20.7,49.7,6.2c0,0,35.5-5.6,35,31c0,0,33,12.7,11.7,51.8c0,0,20.8,26.4-4.1,56.3
				c0,0,17.3,24.9-14.7,56.3c0,0,14.7,18.3-6.1,42.1c0,0,6.6,31-37.1,44.7c0,0-1,17.8-52.3,17.3c0,0-14.2,9.6-37.6,6.1
				c0,0-21.8,14.7-20.8,51.3c0,0-13.2-6.1-28.9,0c0,0-14.2-58.4-3.6-80.7s51.8-16.2,51.8-16.2s3.5-23.4,32-25.4
				c0,0,8.6-17.3,26.9-15.2c0,0,4.1-25.9,22.8-25.9c0,0-8.6-28.9,5.6-34c0,0-11.7-30.5,1.5-39.6c0,0-4.6-29.4,6.6-36
				c0,0-13.7-24.4-3.6-31.5c0,0-17.3,11.7-32,7.1c0,0-9.6,29.4-37.6,27.4c0,0-18.8,14.7-39.6,8.6c0,0-16.2,11.7-44.2-9.1
				c0,0-33.5,7.1-39.6-15.7c0,0-28.4,5.6-37.1-10.7c0,0,12.7,27.9-8.1,44.2c0,0,11.7,24.9,5.1,38.6c0,0,18.8,11,8.1,35.7
				c0,0,20.8,13.5,11.2,38.9c0,0,23.4,9.6,22.3,35.5c0,0,25.4,8.6,24.4,29.9C215,413.5,223.7,418.6,221.1,430.8z"/>
			<g>
				<g>
					<path class="st0" d="M164.6,400.8c3-15.5,15.4-28.6,28.1-36.9c2.1-1.3,0.1-4.6-1.9-3.3c-13.5,8.8-26.6,22.8-29.8,39.2
						C160.5,402.2,164.1,403.2,164.6,400.8L164.6,400.8z"/>
				</g>
				<g>
					<path class="st0" d="M117.4,360.7c6.5-19.5,30.2-28.7,48.4-31.7c2.4-0.4,1.4-4.1-1-3.7c-19.7,3.2-44.1,13.5-51.1,34.3
						C112.9,362,116.6,363,117.4,360.7L117.4,360.7z"/>
				</g>
				<g>
					<path class="st0" d="M91,294c13.4-16.1,39.3-15.3,57.5-11.2c2.4,0.5,3.4-3.1,1-3.7c-19.5-4.4-46.9-4.9-61.2,12.2
						C86.8,293.2,89.4,295.9,91,294L91,294z"/>
				</g>
				<g>
					<path class="st0" d="M86.1,242.6c17-8.1,37.6-7.1,53.4,3c2.1,1.3,4-2,1.9-3.3c-17-11-39-11.8-57.3-3.1
						C81.9,240.3,83.8,243.6,86.1,242.6L86.1,242.6z"/>
				</g>
				<g>
					<path class="st0" d="M90.6,199.9c13.8-6,30.4-2.7,41.4,7.8c1.8,1.7,4.5-1,2.7-2.7c-12.3-11.8-30.2-15.3-46-8.4
						C86.5,197.6,88.4,200.9,90.6,199.9L90.6,199.9z"/>
				</g>
				<g>
					<path class="st0" d="M98.3,138.8c18.9-1.7,33.7,14,40.3,30.1c0.9,2.2,4.6,1.3,3.7-1c-7.2-17.5-23.2-34.7-44-32.9
						C95.9,135.2,95.8,139,98.3,138.8L98.3,138.8z"/>
				</g>
				<g>
					<path class="st0" d="M170.5,118.9c11,12.3,12,34.2,12.1,49.4c0,2.5,3.8,2.5,3.8,0c-0.2-16.5-1.5-39-13.2-52.1
						C171.6,114.4,168.9,117.1,170.5,118.9L170.5,118.9z"/>
				</g>
				<g>
					<path class="st0" d="M227.8,142.1c13.9,8.4,10.9,34,8.8,46.6c-0.4,2.4,3.3,3.4,3.7,1c2.4-14.6,5.2-41.4-10.5-50.9
						C227.6,137.5,225.7,140.8,227.8,142.1L227.8,142.1z"/>
				</g>
				<g>
					<path class="st0" d="M273.8,143.9c7.7,14.9,6.6,33.3,0,48.3c-1,2.2,2.3,4.2,3.3,1.9c7.2-16.3,8.4-35.9,0-52.2
						C276,139.8,272.7,141.7,273.8,143.9L273.8,143.9z"/>
				</g>
				<g>
					<path class="st0" d="M309.5,133.4c15,10.2,15.8,31.4,11.8,47.1c-0.6,2.4,3.1,3.4,3.7,1c4.5-17.6,2.9-40.2-13.6-51.4
						C309.4,128.8,307.5,132.1,309.5,133.4L309.5,133.4z"/>
				</g>
				<g>
					<path class="st0" d="M350.1,110.3c19.2,3.4,26.3,25.6,27,42.3c0.1,2.4,3.9,2.5,3.8,0c-0.8-18.3-8.9-42.3-29.8-46
						C348.7,106.2,347.7,109.8,350.1,110.3L350.1,110.3z"/>
				</g>
				<g>
					<path class="st0" d="M423,142c-6.9,12.2-23,19.6-35.4,24.3c-2.3,0.9-1.3,4.5,1,3.7c13.3-5,30.2-12.9,37.7-26
						C427.5,141.8,424.3,139.9,423,142L423,142z"/>
				</g>
				<g>
					<path class="st0" d="M385.7,202.4c16.9,10.8,38.6,8.7,55.7,0c2.2-1.1,0.3-4.4-1.9-3.3c-15.9,8.1-36.2,10.1-51.9,0
						C385.5,197.8,383.6,201.1,385.7,202.4L385.7,202.4z"/>
				</g>
				<g>
					<path class="st0" d="M380.9,236.2c11,16.7,32.4,22.7,51.4,20.4c2.4-0.3,2.4-4.1,0-3.8c-17.5,2.2-37.8-2.9-48.1-18.5
						C382.9,232.2,379.6,234.1,380.9,236.2L380.9,236.2z"/>
				</g>
				<g>
					<path class="st0" d="M380.7,274.9c6.6,15.6,20.5,30,38.4,29.8c2.5,0,2.5-3.8,0-3.8c-16.2,0.2-29.2-13.8-34.7-27
						C383.5,271.7,379.8,272.7,380.7,274.9L380.7,274.9z"/>
				</g>
				<g>
					<path class="st0" d="M374.1,309.5c4.2,17.7,18.2,32.9,36.4,36.1c2.4,0.4,3.4-3.2,1-3.7c-16.9-3-29.7-17-33.7-33.4
						C377.2,306.1,373.6,307.1,374.1,309.5L374.1,309.5z"/>
				</g>
				<g>
					<path class="st0" d="M348.7,334.3c-5,19.2,4.3,38.3,20.7,48.6c2.1,1.3,4-2,1.9-3.3c-14.9-9.3-23.5-26.8-18.9-44.3
						C353,333,349.4,332,348.7,334.3L348.7,334.3z"/>
				</g>
				<g>
					<path class="st0" d="M321.8,348.2c-12.3,14.6-3.9,38.5,3.3,53.1c1.1,2.2,4.4,0.3,3.3-1.9c-6.3-12.7-14.8-35.4-3.9-48.5
						C326.1,349,323.4,346.3,321.8,348.2L321.8,348.2z"/>
				</g>
				<g>
					<path class="st0" d="M288.7,373.3c-12.7,8.6-6.6,27.1-0.7,37.6c1.2,2.1,4.5,0.2,3.3-1.9c-4.6-8.4-11.3-25.2-0.7-32.4
						C292.6,375.2,290.7,371.9,288.7,373.3L288.7,373.3z"/>
				</g>
			</g>
		</g>
	</g>
</g>
</svg>
