<?xml version="1.0" encoding="utf-8"?>
<!-- Generator: Adobe Illustrator 23.0.1, SVG Export Plug-In . SVG Version: 6.00 Build 0)  -->
<svg version="1.1" id="Layer_1" xmlns="http://www.w3.org/2000/svg" xmlns:xlink="http://www.w3.org/1999/xlink" x="0px" y="0px"
	 viewBox="0 0 516.2 516.2" style="enable-background:new 0 0 516.2 516.2;" xml:space="preserve">
<g>
	<g>
		<g>
			<g>
				<path d="M159.1,447.7c0,0-48.3-190.6,78.7-229.9l14.8,27.3c0,0-109.9,19.5-59.2,202.6H159.1z"/>
				<path d="M255.7,183.6c0,0-79.5,2.3-102.1-30.4c0,0-17.1,7.8-19.5,21.8c0,0,28.1,28,109.1,42.9L255.7,183.6z"/>
			</g>
			<path d="M235.4,79.2c-39.5,28.2-28.1,65.7-16,84.5c12,18.8,15.5,42.6,16,60.7c-0.6,18.1-4,41.9-16,60.7
				c-12,18.8-23.5,56.3,16,84.5s146.7,6.9,146.7-145.2S274.9,51,235.4,79.2z"/>
		</g>
	</g>
</g>
</svg>
