<?xml version="1.0" encoding="utf-8"?>
<!-- Generator: Adobe Illustrator 23.0.1, SVG Export Plug-In . SVG Version: 6.00 Build 0)  -->
<svg version="1.1" id="Layer_1" xmlns="http://www.w3.org/2000/svg" xmlns:xlink="http://www.w3.org/1999/xlink" x="0px" y="0px"
	 viewBox="0 0 517.1 517.1" style="enable-background:new 0 0 517.1 517.1;" xml:space="preserve">
<style type="text/css">
	.st0{fill:#FFFFFF;}
</style>
<g>
	<g>
		<g>
			<path d="M439.1,157.2c-0.7-17-18.5-21.6-114.2-20.6c-95.7,1-189.3-24.7-225.3,47.3c-36,72-23.7,224.3,12.3,220.1
				c36-4.1,95.2-67.5,122.9-97.3c27.8-29.8,65.4-24.1,103.4-38.2C403.8,244.2,440.1,183.9,439.1,157.2z"/>
			<path class="st0" d="M223.7,143.5c0,0,26.1,39.2,23.3,75.6s-104.5,153-145.6,132.5c0,0,2.8,18.7,28,12.1
				c25.2-6.5,73.7-46.7,95.2-77.5c21.5-30.8,41.1-32.2,67.2-32s105.7-29.9,117.6-71.6c0,0-24.3,34.5-75.6,46.7
				C282.5,241.4,259.1,153.1,223.7,143.5z"/>
		</g>
	</g>
</g>
</svg>
