<?xml version="1.0" encoding="utf-8"?>
<!-- Generator: Adobe Illustrator 23.0.1, SVG Export Plug-In . SVG Version: 6.00 Build 0)  -->
<svg version="1.1" id="Layer_1" xmlns="http://www.w3.org/2000/svg" xmlns:xlink="http://www.w3.org/1999/xlink" x="0px" y="0px"
	 viewBox="0 0 518.3 518.3" style="enable-background:new 0 0 518.3 518.3;" xml:space="preserve">
<g>
	<g>
		<g>
			<g>
				<g>
					<path d="M232.2,243.9c-2.8-28.5-4.8-92.6-33.1-94.1c-28.2-1.4-87.1,29.2-110.5,139.7C65.2,400,83.8,437,118.5,424.9
						c34.7-12.1,109.7-28.5,113.7-52.7C236.2,348,236.5,287.4,232.2,243.9z"/>
					<path d="M286.1,243.9c2.8-28.5,4.8-92.6,33.1-94.1c28.2-1.4,87.1,29.2,110.5,139.7c23.4,110.4,4.8,147.5-29.8,135.4
						c-34.7-12.1-109.7-28.5-113.7-52.7C282.1,348,281.8,287.4,286.1,243.9z"/>
				</g>
				<g>
					<path d="M275.4,65.5h-15.2h-15.2c0,0,15.6,144-13.2,177.9v37.1c0,0,28.4-11.3,28.4-40.3c0,29,28.4,40.3,28.4,40.3v-37.1
						C259.8,209.5,275.4,65.5,275.4,65.5z"/>
					<path d="M260.3,65.5L260.3,65.5h-15.2c0,0,15.6,144-13.2,177.9v37.1c0,0,28.4-11.3,28.4-40.3c0,0,0,0,0,0V65.5z"/>
				</g>
			</g>
		</g>
	</g>
</g>
</svg>
