<?xml version="1.0" encoding="utf-8"?>
<!-- Generator: Adobe Illustrator 23.0.1, SVG Export Plug-In . SVG Version: 6.00 Build 0)  -->
<svg version="1.1" id="Layer_1" xmlns="http://www.w3.org/2000/svg" xmlns:xlink="http://www.w3.org/1999/xlink" x="0px" y="0px"
	 viewBox="0 0 521.7 521.7" style="enable-background:new 0 0 521.7 521.7;" xml:space="preserve">
<style type="text/css">
	.st0{fill:#FFFFFF;}
</style>
<g>
	<g>
		<g>
			<path d="M459.9,145.1c0,0-9.9-12.5-26.5,0c0,0-12-12-30.2,0c0,0-18.7-7.8-25.5,5.2c0,0-20.3-12-27.6,6.2c0,0-18.7-12-28.6,4.2
				c0,0-20.3-14-34.8,0c0,0-29.6-8.8-42.6,9.4c0,0-12.5-12-30.7,0c0,0-31.2-7.8-44.7,4.7c0,0-25.3-4.7-40,7.3
				c0,0-21.4,2.1-31.3,20.3c0,0-22.4,12-21.8,32.2c0,0-26.5,20.3-12,51c0,0-8.8,20.8,2.1,42.6c0,0,6.2,27.6,27,28.6
				c0,0,15.1,20.8,40.6,19.2c0,0,32.8,13.7,51.5,0.1c0,0,20.3-7.4,30.2-21.9c0,0,15.6-15.6,4.2-35.9c0,0,1.6-19.2-13-21.8
				c0,0,23.9-1,30.7-10.4c0,0,28.6,0.5,39.5-13c0,0,28.1-3.1,38.5-18.2c0,0,27.6-4.2,42.1-19.2c0,0,20.3-4.7,34.8-11.4
				c0,0,25.5-1,31.7-12.5c0,0,21.8-6.8,27-21.8c0,0,13.5-13.5,9.4-24.4C459.9,165.4,465.6,149.3,459.9,145.1z"/>
			<g>
				<path class="st0" d="M122.4,320.3c15.3-21.7,12.2-49-2.8-69.9c-1.9-2.7-6.5-0.1-4.5,2.6c14,19.5,17,44.3,2.8,64.6
					C116,320.5,120.5,323.1,122.4,320.3L122.4,320.3z"/>
			</g>
			<g>
				<path class="st0" d="M130.7,277.8c20.3-17.9,38.4-45.1,34.2-73.2c-0.5-3.3-5.5-1.9-5,1.4c3.9,26.1-14.2,51.6-32.9,68.1
					C124.5,276.3,128.2,280,130.7,277.8L130.7,277.8z"/>
			</g>
			<g>
				<path class="st0" d="M158.2,238.8c34.2-1.8,74.6-13.5,93.8-44c1.8-2.8-2.7-5.5-4.5-2.6c-18.1,28.7-57,39.7-89.3,41.4
					C154.9,233.8,154.9,239,158.2,238.8L158.2,238.8z"/>
			</g>
			<g>
				<path class="st0" d="M234.6,213.4c40.8,5,97.9,3.3,124.9-32.4c2-2.7-2.5-5.3-4.5-2.6c-25.7,33.9-81.8,34.6-120.4,29.8
					C231.3,207.7,231.3,212.9,234.6,213.4L234.6,213.4z"/>
			</g>
			<g>
				<path class="st0" d="M339.4,198.6c29.5,2.7,66.8-0.8,88.3-23.3c2.3-2.4-1.4-6.1-3.7-3.7c-20.6,21.5-56.4,24.3-84.7,21.8
					C336.1,193.1,336.1,198.3,339.4,198.6L339.4,198.6z"/>
			</g>
			<g>
				<path class="st0" d="M129.6,295.9c18.4-2.7,38.5,7.4,51.1,21.5c2.2,2.5,5.9-1.2,3.7-3.7c-13.8-15.5-34.9-26-56.2-22.9
					C124.9,291.4,126.3,296.4,129.6,295.9L129.6,295.9z"/>
			</g>
			<g>
				<path class="st0" d="M149.7,254.4c14.6,0.8,27.9,10.3,34.8,22.9c1.6,2.9,6.1,0.3,4.5-2.6c-7.8-14.3-22.8-24.5-39.3-25.5
					C146.3,249,146.4,254.2,149.7,254.4L149.7,254.4z"/>
			</g>
			<g>
				<path class="st0" d="M212.2,226.4c18.1-1.5,36.7,6.4,46.5,21.8c1.8,2.8,6.3,0.2,4.5-2.6c-10.7-17-31-26-50.9-24.4
					C208.8,221.5,208.8,226.7,212.2,226.4L212.2,226.4z"/>
			</g>
			<g>
				<path class="st0" d="M308.6,209.6c9.5,5,16.2,15.2,17.6,25.7c0.4,3.3,5.6,3.3,5.2,0c-1.6-12.3-8.9-24.2-20.2-30.2
					C308.3,203.6,305.7,208.1,308.6,209.6L308.6,209.6z"/>
			</g>
		</g>
	</g>
</g>
</svg>
